<?xml version="1.0" encoding="UTF-8" standalone="no"?>
<svg
   xmlns:dc="http://purl.org/dc/elements/1.1/"
   xmlns:cc="http://creativecommons.org/ns#"
   xmlns:rdf="http://www.w3.org/1999/02/22-rdf-syntax-ns#"
   xmlns:svg="http://www.w3.org/2000/svg"
   xmlns="http://www.w3.org/2000/svg"
   xmlns:sodipodi="http://sodipodi.sourceforge.net/DTD/sodipodi-0.dtd"
   xmlns:inkscape="http://www.inkscape.org/namespaces/inkscape"
   height="1000"
   width="875"
   id="svg3074"
   version="1.1"
   inkscape:version="0.48.4 r9939"
   sodipodi:docname="database.svg">
  <metadata
     id="metadata3082">
    <rdf:RDF>
      <cc:Work
         rdf:about="">
        <dc:format>image/svg+xml</dc:format>
        <dc:type
           rdf:resource="http://purl.org/dc/dcmitype/StillImage" />
      </cc:Work>
    </rdf:RDF>
  </metadata>
  <defs
     id="defs3080">
    <path
       d="M114 29c0 14.359-11.64 26-25.998 26-14.362 0-26.002-11.641-26.002-26s11.64-26 26.002-26c14.358 0 25.998 11.64 25.998 26z"
       id="a" />
  </defs>
  <sodipodi:namedview
     pagecolor="#ffffff"
     bordercolor="#666666"
     borderopacity="1"
     objecttolerance="10"
     gridtolerance="10"
     guidetolerance="10"
     inkscape:pageopacity="0"
     inkscape:pageshadow="2"
     inkscape:window-width="1855"
     inkscape:window-height="1056"
     id="namedview3078"
     showgrid="false"
     inkscape:zoom="0.208"
     inkscape:cx="-546.94422"
     inkscape:cy="282.38429"
     inkscape:window-x="65"
     inkscape:window-y="24"
     inkscape:window-maximized="1"
     inkscape:current-layer="svg3074" />
  <path
     style="fill:#26b99a;fill-opacity:1;stroke:none"
     d="M 375.24137,367.06844 C 297.01821,362.01127 229.83652,349.70448 169.01222,329.29007 60.11129,292.73968 10.533304,243.60682 26.379644,187.93807 30.393997,173.8355 33.946653,168.51905 50.527216,151.80183 61.219623,141.0213 76.925636,128.02235 85.429464,122.91527 137.89868,91.404254 222.54377,66.015205 315.77679,53.823272 c 46.37058,-6.063806 202.91309,-6.952865 246.69893,-1.401089 93.00184,11.792061 158.4343,29.235094 215.72654,57.508537 35.34079,17.4405 56.41486,32.82403 70.04202,51.12889 31.31755,42.0677 20.99409,84.55649 -29.51549,121.47827 -40.44498,29.56472 -118.11783,58.02197 -196.55515,72.01255 -65.26976,11.64193 -174.68681,17.18873 -246.93227,12.51801 l 0,0 z"
     id="path3891"
     inkscape:connector-curvature="0" />
  <rect
     style="fill:#26b99a;fill-opacity:1"
     id="rect3899"
     width="824.51923"
     height="560.09613"
     x="33.653847"
     y="276.44232" />
  <path
     style="fill:#26b99a;fill-opacity:1;stroke:none"
     d="M 372.81025,968.44087 C 294.58709,963.3837 227.4054,951.07691 166.5811,930.6625 57.680177,894.11211 8.1021903,844.97925 23.94853,789.3105 27.962883,775.20793 31.515539,769.89148 48.096102,753.17426 58.78851,742.39373 74.494523,729.39478 82.99835,724.2877 c 52.46921,-31.51103 137.1143,-56.90008 230.34732,-69.09201 46.37058,-6.0638 202.91309,-6.95286 246.69893,-1.40109 93.00184,11.79206 158.4343,29.2351 215.72654,57.50854 35.34079,17.44051 56.41486,32.82404 70.04202,51.1289 31.31755,42.0677 20.99409,84.55649 -29.51549,121.47827 -40.44498,29.56472 -118.11783,58.02197 -196.55515,72.01255 -65.26976,11.64193 -174.68681,17.18873 -246.93227,12.51801 l 0,0 z"
     id="path3891-7"
     inkscape:connector-curvature="0" />
  <path
     d="M0 796.888l0 -593.712q0 -97.65 130.851 -150.381t306.621 -52.731 306.621 52.731 130.851 150.381l0 593.712q0 97.65 -130.851 150.381t-306.621 52.731 -306.621 -52.731 -130.851 -150.381zm62.496 0q0 58.59 109.368 99.603t265.608 41.013 265.608 -41.013 109.368 -99.603l0 -117.18q-46.872 48.825 -150.381 75.191t-224.595 26.366 -224.595 -26.366 -150.381 -75.191l0 117.18zm0 -187.488q0 58.59 109.368 99.603t265.608 41.013 265.608 -41.013 109.368 -99.603l0 -117.18q-46.872 48.825 -150.381 75.191t-224.595 26.366 -224.595 -26.366 -150.381 -75.191l0 117.18zm0 -187.488q0 58.59 109.368 99.603t265.608 41.013 265.608 -41.013 109.368 -99.603l0 -107.415q-58.59 44.919 -160.146 68.355t-214.83 23.436 -214.83 -23.436 -160.146 -68.355l0 107.415zm0 -218.736q0 58.59 109.368 99.603t265.608 41.013 265.608 -41.013 109.368 -99.603 -109.368 -99.603 -265.608 -41.013 -265.608 41.013 -109.368 99.603zm624.96 609.336q0 -13.671 8.789 -22.46t22.46 -8.789 22.46 8.789 8.789 22.46 -8.789 22.46 -22.46 8.789 -22.46 -8.789 -8.789 -22.46zm0 -187.488q0 -13.671 8.789 -22.46t22.46 -8.789 22.46 8.789 8.789 22.46 -8.789 22.46 -22.46 8.789 -22.46 -8.789 -8.789 -22.46zm0 -187.488q0 -13.671 8.789 -22.46t22.46 -8.789 22.46 8.789 8.789 22.46 -8.789 22.46 -22.46 8.789 -22.46 -8.789 -8.789 -22.46z"
     fill="#000000"
     id="path3076" />
  <path
     style="fill:#26b99a"
     inkscape:connector-curvature="0"
     d="m -829.18812,274.45983 c 27.614,0 50,22.386 50,50 0,27.613 -22.386,50 -50,50 -27.614,0 -50,-22.387 -50,-50 0,-27.614 22.386,-50 50,-50 z"
     id="path3086" />
  <path
     style="fill:#ffffff"
     inkscape:connector-curvature="0"
     d="m -797.87912,313.79883 -35.868,35.869 c -0.731,0.731 -1.924,0.731 -2.651,0 l -20.286,-20.498 c -0.362,-0.366 -0.556,-1.374 -0.556,-1.859 0,-0.484 0.194,-0.947 0.556,-1.315 l 5.404,-4.871 c 0.366,-0.375 0.855,-0.555 1.338,-0.55 0.476,10e-4 0.951,0.185 1.313,0.55 l 12.231,12.478 c 0.728,0.743 1.92,0.743 2.651,0 l 27.918,-27.835 c 0.728,-0.737 1.92,-0.737 2.647,0 l 5.302,5.354 c 0.732,0.734 0.732,1.942 0.001,2.677 z"
     id="path3088" />
</svg>
