<?xml version="1.0" encoding="UTF-8" standalone="no"?>
<!-- Generator: Adobe Illustrator 13.0.0, SVG Export Plug-In . SVG Version: 6.00 Build 14948)  -->

<svg
   xmlns:dc="http://purl.org/dc/elements/1.1/"
   xmlns:cc="http://creativecommons.org/ns#"
   xmlns:rdf="http://www.w3.org/1999/02/22-rdf-syntax-ns#"
   xmlns:svg="http://www.w3.org/2000/svg"
   xmlns="http://www.w3.org/2000/svg"
   xmlns:sodipodi="http://sodipodi.sourceforge.net/DTD/sodipodi-0.dtd"
   xmlns:inkscape="http://www.inkscape.org/namespaces/inkscape"
   version="1.1"
   id="Layer_1"
   x="0px"
   y="0px"
   width="100"
   height="100"
   viewBox="0 0 100 100"
   xml:space="preserve"
   inkscape:version="0.48.4 r9939"
   sodipodi:docname="java.svg"><metadata
     id="metadata3212"><rdf:RDF><cc:Work
         rdf:about=""><dc:format>image/svg+xml</dc:format><dc:type
           rdf:resource="http://purl.org/dc/dcmitype/StillImage" /><dc:title></dc:title></cc:Work></rdf:RDF></metadata><defs
     id="defs3210" /><sodipodi:namedview
     pagecolor="#ffffff"
     bordercolor="#666666"
     borderopacity="1"
     objecttolerance="10"
     gridtolerance="10"
     guidetolerance="10"
     inkscape:pageopacity="0"
     inkscape:pageshadow="2"
     inkscape:window-width="1855"
     inkscape:window-height="1056"
     id="namedview3208"
     showgrid="false"
     inkscape:zoom="0.42909091"
     inkscape:cx="721.68153"
     inkscape:cy="113.53979"
     inkscape:window-x="65"
     inkscape:window-y="24"
     inkscape:window-maximized="1"
     inkscape:current-layer="Layer_1"
     fit-margin-top="0"
     fit-margin-left="0"
     fit-margin-right="0"
     fit-margin-bottom="0" /><path
     style="fill:#5382a1"
     d="m 36.876584,77.335503 c 0,0 -3.821426,2.222292 2.719579,2.974287 7.924244,0.90401 11.974234,0.774366 20.706805,-0.878405 0,0 2.295874,1.439571 5.502228,2.686426 -19.576117,8.389996 -44.304611,-0.485966 -28.928612,-4.782308"
     id="path3184"
     inkscape:connector-curvature="0" /><path
     style="fill:#5382a1"
     d="m 34.484487,66.387108 c 0,0 -4.2861,3.172663 2.259757,3.849728 8.464925,0.873284 15.149861,0.94471 26.71737,-1.282704 0,0 1.599943,1.622044 4.115756,2.509075 -23.668693,6.921045 -50.03136,0.545802 -33.092883,-5.076099"
     id="path3186"
     inkscape:connector-curvature="0" /><path
     style="fill:#e76f00"
     d="m 54.65061,47.814998 c 4.823546,5.55344 -1.26734,10.550835 -1.26734,10.550835 0,0 12.247808,-6.322685 6.622943,-14.240191 -5.253451,-7.383563 -9.282147,-11.052164 12.527583,-23.701037 0,0 -34.234082,8.550098 -17.883186,27.390393"
     id="path3188"
     inkscape:connector-curvature="0" /><path
     style="fill:#5382a1"
     d="m 80.541595,85.433595 c 0,0 2.827931,2.330105 -3.114444,4.132736 -11.299594,3.423058 -47.030119,4.456714 -56.955909,0.136383 -3.568066,-1.552235 3.123069,-3.706336 5.227845,-4.158341 2.19507,-0.475994 3.449472,-0.387318 3.449472,-0.387318 -3.968052,-2.795317 -25.6478674,5.488752 -11.012274,7.861174 39.913394,6.472814 72.758308,-2.91472 62.40531,-7.584634"
     id="path3190"
     inkscape:connector-curvature="0" /><path
     style="fill:#5382a1"
     d="m 38.714254,55.04331 c 0,0 -18.17482,4.316827 -6.436157,5.884425 4.956426,0.663588 14.836934,0.513459 24.040377,-0.257672 7.521564,-0.634479 15.074123,-1.983487 15.074123,-1.983487 0,0 -2.652196,1.135808 -4.570995,2.446004 -18.456212,4.854004 -54.11019,2.595864 -43.845867,-2.369188 8.680551,-4.196076 15.738519,-3.720082 15.738519,-3.720082"
     id="path3192"
     inkscape:connector-curvature="0" /><path
     style="fill:#5382a1"
     d="m 71.317667,73.267455 c 18.761592,-9.749247 10.08697,-19.118183 4.0322,-17.855964 -1.484043,0.308884 -2.145745,0.576529 -2.145745,0.576529 0,0 0.550924,-0.863042 1.603177,-1.236613 11.978277,-4.21117 21.190346,12.420309 -3.866707,19.007405 0,2.69e-4 0.290286,-0.25929 0.377075,-0.491357"
     id="path3194"
     inkscape:connector-curvature="0" /><path
     style="fill:#e76f00"
     d="M 60.006213,7.9668217e-7 C 60.006213,7.9668217e-7 70.396676,10.393967 50.15131,26.376952 33.916582,39.198056 46.449286,46.508306 50.14461,54.860567 40.668092,46.31047 33.713625,38.783785 38.379226,31.778645 45.227228,21.495726 64.198515,16.51019 60.006213,7.9668217e-7"
     id="path3196"
     inkscape:connector-curvature="0" /><path
     style="fill:#5382a1"
     d="m 40.557853,99.685645 c 18.008789,1.152785 45.663323,-0.6396 46.318286,-9.160858 0,0 -1.258985,3.230343 -14.883294,5.795749 -15.370878,2.892619 -34.328688,2.554895 -45.572759,0.701053 2.69e-4,-2.69e-4 2.301804,1.905053 14.137767,2.664056"
     id="path3198"
     inkscape:connector-curvature="0" /></svg>